<svg xmlns="http://www.w3.org/2000/svg" fill="currentColor" viewBox="0 0 93 36">
  <path
    d="m7.392 13.538-6.384-2.842V9.212L7.392 6.37v1.204l-5.334 2.38 5.334 2.38v1.204Zm4.2225.63c-1.4 0-2.46397-.812-2.46397-2.016 0-1.26.728-1.918 2.35197-2.24l2.492-.504c0-1.26-.588-1.876-1.652-1.876-1.036 0-1.582.476-1.806 1.33l-1.24597-.098c.28-1.4 1.37197-2.352 3.05197-2.352 1.792 0 2.828 1.148 2.828 3.024v3.08c0 .336.14.448.448.448h.476V14c-.112.014-.392.028-.616.028-.812 0-1.288-.322-1.442-1.078-.406.728-1.358 1.218-2.422 1.218Zm.112-1.036c1.512 0 2.268-.84 2.268-2.072v-.644l-2.268.448c-1.008.196-1.344.56-1.344 1.176 0 .7.504 1.092 1.344 1.092Zm6.2386.868V6.58h1.078l.028 1.33c.406-1.022 1.344-1.498 2.366-1.498 1.694 0 2.576 1.246 2.576 2.814V14h-1.176V9.562c0-1.372-.532-2.114-1.652-2.114-1.148 0-2.044.742-2.044 2.114V14h-1.176Zm10.9565.168c-1.96 0-3.178-1.498-3.178-3.878s1.218-3.878 3.178-3.878c1.036 0 1.862.588 2.226 1.204V4.06h1.176V14h-1.064l-.042-1.12c-.42.812-1.26 1.288-2.296 1.288Zm.07-1.12c1.344 0 2.156-1.064 2.156-2.758 0-1.722-.812-2.758-2.184-2.758-1.218 0-1.988 1.036-1.988 2.758 0 1.694.77 2.758 2.016 2.758Zm5.8465.952v-1.036h1.932V7.616h-1.932V6.58h2.912l.084 1.428c.252-.966.854-1.428 1.778-1.428h1.526v1.064h-1.512c-1.092 0-1.68.658-1.68 1.876v3.444h2.352V14h-5.46Zm8.2826 0v-1.176l4.704-5.208h-4.564V6.58h5.852v1.176l-4.704 5.208h4.816V14h-6.104Zm11.5725.168c-2.1 0-3.402-1.526-3.402-3.878 0-2.352 1.302-3.878 3.346-3.878 1.932 0 3.29 1.4 3.29 3.892v.35h-5.404c.084 1.596.882 2.394 2.17 2.394.966 0 1.596-.49 1.848-1.246l1.26.098c-.392 1.33-1.54 2.268-3.108 2.268Zm-2.17-4.55h4.116c-.112-1.428-.91-2.086-2.002-2.086-1.148 0-1.918.714-2.114 2.086Zm11.1525-4.2V4.046h1.232v1.372h-1.232ZM60.3017 16.1v-1.036h2.352c.728 0 1.092-.252 1.092-1.148v-6.3h-3.304V6.58h4.48V14c0 1.358-.644 2.1-2.128 2.1h-2.492ZM12.7345 32.168c-1.932 0-3.10797-1.106-3.21997-2.506l1.23197-.084c.14.924.812 1.47 1.988 1.47 1.092 0 1.736-.308 1.736-.98 0-.644-.336-.896-1.96-1.176-2.156-.378-2.79997-1.036-2.79997-2.24 0-1.288.99397-2.24 2.81397-2.24 1.834 0 2.786 1.092 3.01 2.38l-1.232.084c-.168-.784-.784-1.344-1.792-1.344-1.092 0-1.596.49-1.596 1.12 0 .756.504.98 1.848 1.204 2.296.378 2.912.98 2.912 2.212 0 1.316-1.26 2.1-2.94 2.1ZM22.0811 32c-1.442 0-2.142-.658-2.142-2.044v-4.34h-2.45V24.58h2.45v-1.736h1.176v1.736h2.954v1.036h-2.954v4.34c0 .686.308 1.008.966 1.008h1.988V32h-1.988Zm7.3025.168c-2.058 0-3.388-1.512-3.388-3.878s1.33-3.878 3.388-3.878c2.044 0 3.388 1.512 3.388 3.878s-1.344 3.878-3.388 3.878Zm0-1.12c1.358 0 2.156-1.036 2.156-2.758s-.798-2.758-2.156-2.758c-1.372 0-2.156 1.036-2.156 2.758s.784 2.758 2.156 2.758Zm5.0345.952v-1.036h2.982v-6.916c0-.602-.35-.952-.952-.952h-1.75V22.06h1.806c1.358 0 2.072.714 2.072 2.072v6.832h2.562V32h-6.72Zm10.7746.168c-1.4 0-2.464-.812-2.464-2.016 0-1.26.728-1.918 2.352-2.24l2.492-.504c0-1.26-.588-1.876-1.652-1.876-1.036 0-1.582.476-1.806 1.33l-1.246-.098c.28-1.4 1.372-2.352 3.052-2.352 1.792 0 2.828 1.148 2.828 3.024v3.08c0 .336.14.448.448.448h.476V32c-.112.014-.392.028-.616.028-.812 0-1.288-.322-1.442-1.078-.406.728-1.358 1.218-2.422 1.218Zm.112-1.036c1.512 0 2.268-.84 2.268-2.072v-.644l-2.268.448c-1.008.196-1.344.56-1.344 1.176 0 .7.504 1.092 1.344 1.092Zm6.3225.868v-1.036h1.932v-5.348h-1.932V24.58h2.912l.084 1.428c.252-.966.854-1.428 1.778-1.428h1.526v1.064h-1.512c-1.092 0-1.68.658-1.68 1.876v3.444h2.352V32h-5.46Zm11.4605.168c-2.1 0-3.402-1.526-3.402-3.878 0-2.352 1.302-3.878 3.346-3.878 1.932 0 3.29 1.4 3.29 3.892v.35h-5.404c.084 1.596.882 2.394 2.17 2.394.966 0 1.596-.49 1.848-1.246l1.26.098c-.392 1.33-1.54 2.268-3.108 2.268Zm-2.17-4.55h4.116c-.112-1.428-.91-2.086-2.002-2.086-1.148 0-1.918.714-2.114 2.086ZM68.4163 32v-9.94h1.176v6.51l3.612-3.99h1.568l-2.926 3.15 3.066 4.27h-1.428l-2.436-3.472-1.456 1.54V32h-1.176Zm8.6465 1.54 4.256-12.04h1.12l-4.256 12.04h-1.12Zm7.8905-2.002v-1.204l5.334-2.38-5.334-2.38V24.37l6.384 2.842v1.484l-6.384 2.842Z"
  />
</svg>
